<svg width="112" height="30" viewBox="0 0 112 30" fill="none" xmlns="http://www.w3.org/2000/svg">
<path d="M14.9997 30C23.2852 30 30 23.284 30 15.0003C30 6.71658 23.284 0 14.9997 0C6.71539 0 0 6.71598 0 15.0003C0 23.2846 6.71539 30 14.9997 30Z" fill="#FAC9E7"/>
<path d="M17.0695 10.9423C17.081 11.0081 17.1022 11.0719 17.1322 11.1317C17.2038 11.2626 17.3103 11.3711 17.4399 11.4451C17.5694 11.5192 17.7169 11.5559 17.8661 11.5513C17.9907 11.5511 18.1141 11.5267 18.2294 11.4797C19.0378 11.1464 19.909 10.9933 20.7825 11.0311C20.8497 11.0334 20.917 11.0287 20.9832 11.0169C21.4436 10.9358 21.7602 10.5393 21.6886 10.1291L21.6561 9.94744C21.5815 9.52606 21.1909 9.21417 20.7092 9.1899C20.1907 9.15592 19.6701 9.17935 19.1568 9.25974C18.6471 9.35933 18.1499 9.51493 17.6743 9.72373C17.2269 9.91252 16.9641 10.3386 17.0405 10.7612L17.0695 10.9423Z" fill="#161414" stroke="#FAC9E7" stroke-width="0.306928"/>
<path d="M23.0639 15.8498L23.0236 15.6214L20.941 15.9877L20.9812 16.2168C21.0323 16.5066 21.0257 16.8036 20.9618 17.0908C20.898 17.3781 20.7781 17.6499 20.6091 17.8908C20.4401 18.1317 20.2252 18.3369 19.9768 18.4946C19.7284 18.6524 19.4513 18.7596 19.1614 18.8101C18.576 18.9121 17.974 18.7783 17.487 18.4378C16.9999 18.0974 16.6674 17.578 16.5621 16.9932L16.5029 16.6506C17.4126 16.086 17.8973 15.058 17.7185 14.0412C17.6688 13.7619 17.441 13.4021 16.6361 13.2719C16.1407 13.1932 15.5022 13.2127 14.8375 13.3311C14.1729 13.4494 13.5699 13.6465 13.1343 13.8897C12.4241 14.2845 12.3353 14.6999 12.3844 14.9787C12.562 15.9948 13.3728 16.795 14.4209 17.0157L14.4801 17.359C14.531 17.6487 14.5243 17.9457 14.4604 18.2328C14.3965 18.52 14.2767 18.7917 14.1077 19.0326C13.9388 19.2734 13.7241 19.4786 13.4758 19.6364C13.2275 19.7942 12.9506 19.9016 12.6608 19.9523C12.0752 20.0547 11.473 19.921 10.9857 19.5805C10.4984 19.2401 10.1657 18.7205 10.0604 18.1355L10.0201 17.9076L7.9375 18.2745L7.97774 18.503C8.15778 19.5108 8.68634 20.4232 9.471 21.0807C10.2557 21.7383 11.2465 22.0991 12.2702 22.1001C12.5244 22.0998 12.778 22.0777 13.0283 22.0338C13.7065 21.9165 14.3469 21.639 14.8961 21.2242C15.3465 20.8835 15.727 20.4593 16.017 19.9748C16.455 20.331 16.9573 20.5999 17.4966 20.7667C18.2091 20.9856 18.966 21.018 19.6946 20.8607C20.4233 20.7034 21.0993 20.3617 21.6581 19.8682C22.2169 19.3748 22.6396 18.7462 22.8858 18.0426C23.1321 17.339 23.1936 16.584 23.0644 15.8498H23.0639Z" fill="#161414" stroke="#FAC9E7" stroke-width="0.590769"/>
<path d="M8.93612 13.76C9.25229 13.758 9.56771 13.7289 9.87889 13.6729C10.6281 13.541 11.2691 13.2877 11.6366 12.9787C12.0041 12.6698 12.0296 12.3798 11.9917 12.1827C11.9078 11.7284 11.6918 11.3089 11.3706 10.9767C11.0495 10.6446 10.6375 10.4145 10.1862 10.3154C9.73492 10.2163 9.26444 10.2525 8.83365 10.4195C8.40286 10.5865 8.03089 10.8768 7.76432 11.2542C7.58684 11.504 7.46089 11.7867 7.39383 12.0858C7.32677 12.3848 7.31993 12.6942 7.37372 12.9959C7.40863 13.193 7.54298 13.4611 7.98507 13.6215C8.29187 13.7215 8.61353 13.7683 8.93612 13.76V13.76ZM10.1198 11.0784C10.2029 11.0639 10.2884 11.0743 10.3656 11.1084C10.4428 11.1425 10.5082 11.1987 10.5534 11.2699C10.5986 11.3412 10.6218 11.4242 10.6198 11.5086C10.6179 11.5929 10.591 11.6748 10.5425 11.7439C10.494 11.8129 10.4262 11.8661 10.3475 11.8966C10.2688 11.9271 10.1829 11.9336 10.1005 11.9152C10.0182 11.8969 9.94308 11.8546 9.88477 11.7936C9.82647 11.7326 9.78756 11.6557 9.77296 11.5726C9.75389 11.4608 9.77986 11.3461 9.84519 11.2535C9.91053 11.1609 10.0099 11.0979 10.1215 11.0784H10.1198Z" fill="#161414" stroke="#FAC9E7" stroke-width="0.306928"/>
<path d="M47.9162 6.92209C45.7663 6.92209 44.235 7.89393 43.2631 9.18971L42.8508 7.09879H39.2285V28.1258H43.3809V20.3217C44.3528 21.5586 45.8547 22.4126 47.9456 22.4126C52.0097 22.4126 54.9546 19.4087 54.9546 14.6968C54.9546 9.92595 52.0097 6.89264 47.9162 6.92209ZM47.0032 19.0259C44.7356 19.0259 43.322 17.2295 43.322 14.6379C43.322 12.0758 44.7356 10.3088 47.0032 10.3088C49.2708 10.3088 50.7433 12.0758 50.7433 14.6379C50.7433 17.2295 49.2708 19.0259 47.0032 19.0259Z" fill="#161414"/>
<path d="M71.102 18.7314C70.4541 18.7314 70.1302 18.5841 70.1302 17.789V12.4292C70.1302 8.80686 67.6858 6.92209 63.4451 6.92209C59.4399 6.92209 56.7306 8.86576 56.4361 11.8107H60.4412C60.6179 10.6916 61.7076 9.9554 63.3273 9.9554C65.0648 9.9554 66.0367 10.8389 66.0367 12.1936V12.9298H63.0328C58.4976 12.9298 56.0827 14.7557 56.0827 17.9657C56.0827 20.8518 58.4387 22.4126 61.7076 22.4126C64.0635 22.4126 65.5949 21.4408 66.6551 19.7621C66.6257 21.2052 67.303 22.2359 69.4528 22.2359H71.5732V18.7314H71.102ZM66.0367 15.9926C66.0072 18.0541 64.682 19.4087 62.5027 19.4087C61.1186 19.4087 60.2645 18.7314 60.2645 17.6712C60.2645 16.4049 61.2658 15.6981 63.0033 15.6981H66.0367V15.9926Z" fill="#161414"/>
<path d="M75.5774 22.2359H79.9949L82.7042 13.1065L85.3547 22.2359H89.7722L94.7491 7.09879H90.5084L87.4162 17.789L84.6479 7.09879H80.9078L78.0512 17.7596L75.0179 7.09879H70.6299L75.5774 22.2359Z" fill="#161414"/>
<path d="M104.301 6.92209C102.151 6.92209 100.62 7.89393 99.6477 9.18971L99.2354 7.09879H95.6131V28.1258H99.7655V20.3217C100.737 21.5586 102.239 22.4126 104.33 22.4126C108.394 22.4126 111.339 19.4087 111.339 14.6968C111.339 9.92595 108.394 6.89264 104.301 6.92209ZM103.388 19.0259C101.12 19.0259 99.7066 17.2295 99.7066 14.6379C99.7066 12.0758 101.12 10.3088 103.388 10.3088C105.655 10.3088 107.128 12.0758 107.128 14.6379C107.128 17.2295 105.655 19.0259 103.388 19.0259Z" fill="#161414"/>
</svg>
